<svg xmlns="http://www.w3.org/2000/svg" width="70.102" height="67.306" viewBox="0 0 70.102 67.306"><defs><style>.a{fill:#002a5e;}.b{fill:#fefefe;}.c{fill:#fdfdfe;}</style></defs><g transform="translate(0)"><g transform="translate(344.586 -81.886)"><g transform="translate(-344.586 81.886)"><path class="a" d="M-278.651,106.982c.792.682.693,1.689.845,2.561a33.177,33.177,0,0,1-2.974,20.95A33.34,33.34,0,0,1-293.986,144.6a32.836,32.836,0,0,1-13.09,4.362,32.133,32.133,0,0,1-17.3-2.644c-10.624-4.874-17.2-13.079-19.555-24.534a32.384,32.384,0,0,1,2.168-19.605A32.455,32.455,0,0,1-334.8,91.885a33.007,33.007,0,0,1,19.434-9.69,32.922,32.922,0,0,1,21.127,4.123,4.982,4.982,0,0,1,.449.326c.069.487-.3.735-.589.992A7.8,7.8,0,0,0-296.8,93.49c-.087,2.108-.1,4.214-.006,6.324a10.953,10.953,0,0,0,.655,3.276,6.407,6.407,0,0,0,5.013,4.137c.507.117,1.278-.036,1.428.634.139.622-.51.935-.938,1.278a1.131,1.131,0,0,0-.439,1.473,1.343,1.343,0,0,0,1.529.635,9.3,9.3,0,0,0,5.753-2.8,3.211,3.211,0,0,1,2.273-1.1,7.248,7.248,0,0,0,1.821-.382C-279.357,106.853-279,106.69-278.651,106.982Z" transform="translate(344.586 -81.886)"/><path class="b" d="M-199.379,112.182a1.809,1.809,0,0,0-.267.08c-1.2.57-2.647.381-3.766.917s-1.847,1.795-3.014,2.431a10.327,10.327,0,0,1-4.163,1.232,1.477,1.477,0,0,1-1.7-.991,1.461,1.461,0,0,1,.767-1.888,2.646,2.646,0,0,0,1.048-.906c-.482-.087-.891-.151-1.3-.237-3.55-.758-5.452-2.749-5.964-6.362a37.488,37.488,0,0,1-.049-9.122,7.19,7.19,0,0,1,3.274-5.491,19.5,19.5,0,0,1,14.326-.57,6.371,6.371,0,0,1,4.521,5.2,31.992,31.992,0,0,1,.092,10.2A6.845,6.845,0,0,1-199.379,112.182Z" transform="translate(265.314 -87.086)"/><path class="b" d="M-267.362,202.754c.262.722-.285,1.332-1.065,1.936a29.379,29.379,0,0,1-16.82,6.282,27.916,27.916,0,0,1-19.784-6.705,1.129,1.129,0,0,1-.485-1.017,16.848,16.848,0,0,1,9.038-14.872,1.23,1.23,0,0,1,1.567.132,14.108,14.108,0,0,0,16.935.01,1.278,1.278,0,0,1,1.645-.081C-270.893,191.538-267.957,196.212-267.362,202.754Z" transform="translate(320.112 -148.458)"/><path class="b" d="M-280.827,141.993a9.9,9.9,0,0,1,9.922-9.9,9.96,9.96,0,0,1,9.9,9.944,9.908,9.908,0,0,1-9.952,9.871A9.846,9.846,0,0,1-280.827,141.993Z" transform="translate(304.645 -113.341)"/><path class="a" d="M-204.235,117.918a8.619,8.619,0,0,0,.322-.807c.395-1.457-.1-2.179-1.584-2.312-.5-.044-1-.047-1.487-.125a4.892,4.892,0,0,1-4.536-4.852,39.3,39.3,0,0,1-.006-8.1,4.838,4.838,0,0,1,3.474-4.385,18.9,18.9,0,0,1,7.377-.647,12.277,12.277,0,0,1,3.373.647,5.076,5.076,0,0,1,3.524,4.776,64.983,64.983,0,0,1,.007,7.363,5.131,5.131,0,0,1-5.083,5.248,5.8,5.8,0,0,1-.837.055,1.789,1.789,0,0,0-1.764.929A5.78,5.78,0,0,1-204.235,117.918Z" transform="translate(261.362 -91.107)"/><path class="b" d="M-192.322,106.29a15.923,15.923,0,0,1,.011-1.615,1.73,1.73,0,0,1,1.711-1.634c.988-.056,1.5.34,1.759,1.391.352,1.425-.073,2.836-.11,4.254a23.865,23.865,0,0,1-.3,2.674c-.11.786-.486,1.31-1.384,1.294-.875-.016-1.169-.58-1.285-1.307C-192.181,109.691-192.2,108.015-192.322,106.29Z" transform="translate(249.212 -95.136)"/><path class="c" d="M-190.613,133.194a1.7,1.7,0,0,1-1.745-1.754,1.816,1.816,0,0,1,1.825-1.834,1.854,1.854,0,0,1,1.793,1.876A1.7,1.7,0,0,1-190.613,133.194Z" transform="translate(249.224 -111.78)"/></g></g></g></svg>